<?xml version="1.0" encoding="UTF-8" standalone="no"?>
<!-- Created with Inkscape (http://www.inkscape.org/) -->

<svg
   xmlns:dc="http://purl.org/dc/elements/1.1/"
   xmlns:cc="http://creativecommons.org/ns#"
   xmlns:rdf="http://www.w3.org/1999/02/22-rdf-syntax-ns#"
   xmlns:svg="http://www.w3.org/2000/svg"
   xmlns="http://www.w3.org/2000/svg"
   xmlns:sodipodi="http://sodipodi.sourceforge.net/DTD/sodipodi-0.dtd"
   xmlns:inkscape="http://www.inkscape.org/namespaces/inkscape"
   width="1301.48"
   height="520"
   id="svg29010"
   version="1.1"
   inkscape:version="0.48.4 r9939"
   sodipodi:docname="Neues Dokument 11">
  <defs
     id="defs29012" />
  <sodipodi:namedview
     id="base"
     pagecolor="#ffffff"
     bordercolor="#666666"
     borderopacity="1.0"
     inkscape:pageopacity="0.0"
     inkscape:pageshadow="2"
     inkscape:zoom="1.2095388"
     inkscape:cx="650.73998"
     inkscape:cy="260"
     inkscape:document-units="px"
     inkscape:current-layer="layer1"
     showgrid="false"
     fit-margin-top="0"
     fit-margin-left="0"
     fit-margin-right="0"
     fit-margin-bottom="0"
     inkscape:window-width="1680"
     inkscape:window-height="990"
     inkscape:window-x="-4"
     inkscape:window-y="-4"
     inkscape:window-maximized="1" />
  <metadata
     id="metadata29015">
    <rdf:RDF>
      <cc:Work
         rdf:about="">
        <dc:format>image/svg+xml</dc:format>
        <dc:type
           rdf:resource="http://purl.org/dc/dcmitype/StillImage" />
        <dc:title></dc:title>
      </cc:Work>
    </rdf:RDF>
  </metadata>
  <g
     inkscape:label="Ebene 1"
     inkscape:groupmode="layer"
     id="layer1"
     transform="translate(-111.66496,113.86546)">
    <g
       transform="matrix(18.791906,0,0,-18.791906,873.46889,270.03709)"
       id="g116"
       style="fill:#3a3365;fill-opacity:1">
      <path
         inkscape:connector-curvature="0"
         id="path118"
         style="fill:#1a124c;fill-opacity:1;fill-rule:nonzero;stroke:none"
         d="m 0,0 c 1.916,3.014 2.529,6.113 2.529,6.113 l -4.536,1.289 c 0,0 -0.591,-2.242 -1.243,-3.487 0,0 -5.276,6.46 -6.188,7.577 -0.889,1.089 -1.049,1.581 -1.049,2.369 0,0.374 0.162,1.489 1.965,1.546 2.409,0.077 5.181,-2.277 5.181,-2.277 l 2.363,4.053 c 0,0 -3.225,2.714 -7.239,2.714 -4.446,0 -7.209,-2.337 -7.209,-6.104 0,-1.848 0.625,-3.298 2.285,-5.302 -3.227,-1.997 -4.56,-4.105 -4.56,-7.124 0,-4.431 3.019,-7.074 8.077,-7.074 2.375,0 4.612,0.779 6.512,2.259 l 1.601,-1.892 5.839,0 L 0,0 z m -9.487,-1.072 c -2.085,0 -3.28,0.951 -3.28,2.606 0,1.362 0.726,2.363 2.55,3.475 l 4.12,-4.902 c -1.013,-0.783 -2.15,-1.179 -3.39,-1.179" />
    </g>
    <g
       transform="matrix(18.791906,0,0,-18.791906,1253.6554,184.96989)"
       id="g120"
       style="fill:#1a124c;fill-opacity:1">
      <path
         inkscape:connector-curvature="0"
         id="path122"
         style="fill:#1a124c;fill-opacity:1;fill-rule:nonzero;stroke:none"
         d="M 0,0 C 0.423,0.173 0.926,0.402 1.307,0.581 L 1.324,0.573 c 2.135,1.163 4.224,3.306 4.283,6.634 0.072,4.992 -3.672,7.812 -9.772,7.812 l -11.268,0 0,-24.965 5.6,0 0,9.167 4.064,0 c 0,0 5.871,-9.328 9.503,-10.458 l 4.221,2.862 C 3.194,-5.291 0.312,-0.572 0,0 m -9.833,4.319 0,5.67 6.062,0 c 2.353,0 3.708,-1.033 3.708,-2.782 0,-1.64 -1.57,-2.888 -3.602,-2.888 l -6.168,0 z" />
    </g>
    <g
       transform="matrix(18.791906,0,0,-18.791906,410.55284,182.89527)"
       id="g124"
       style="fill:#1a124c;fill-opacity:1">
      <path
         inkscape:connector-curvature="0"
         id="path126"
         style="fill:#1a124c;fill-opacity:1;fill-rule:nonzero;stroke:none"
         d="m 0,0 0,-9.987 -5.6,0 0,9.987 c -3.03,4.671 -6.741,10.306 -9.773,14.978 l 6.812,0 5.849,-9.523 c 1.927,3.138 4.029,6.419 5.922,9.523 l 6.667,0 L 0,0 z" />
    </g>
  </g>
</svg>
